<svg width="18" height="18" viewBox="0 0 18 18" fill="none" xmlns="http://www.w3.org/2000/svg">
<mask id="mask0_1174_55" style="mask-type:luminance" maskUnits="userSpaceOnUse" x="0" y="0" width="18" height="18">
<path d="M18 0H0V18H18V0Z" fill="white"/>
</mask>
<g mask="url(#mask0_1174_55)">
<path d="M17.3787 9.19375C17.3787 8.57245 17.3227 7.97795 17.2187 7.40625H9.17773V10.6814L13.8087 10.6824C13.6207 11.7721 13.0167 12.7011 12.0897 13.3204V15.4454H14.8467C16.4567 13.9656 17.3787 11.7782 17.3787 9.19375Z" fill="#4285F4"/>
<path d="M12.0932 13.3195C11.3252 13.8336 10.3372 14.1344 9.18124 14.1344C6.94824 14.1344 5.05324 12.6397 4.37524 10.625H1.53125V12.8164C2.94025 15.5933 5.83624 17.4988 9.18124 17.4988C11.4932 17.4988 13.4362 16.7436 14.8492 15.4434L12.0932 13.3195Z" fill="#34A853"/>
<path d="M4.10612 9.00169C4.10612 8.43589 4.20111 7.88909 4.37411 7.37499V5.18359H1.53012C0.948121 6.33189 0.620117 7.62809 0.620117 9.00169C0.620117 10.3752 0.949121 11.6714 1.53012 12.8197L4.37411 10.6283C4.20111 10.1142 4.10612 9.56739 4.10612 9.00169Z" fill="#FABB05"/>
<path d="M9.18124 3.8645C10.4432 3.8645 11.5732 4.2962 12.4652 5.1398L14.9082 2.7152C13.4252 1.3426 11.4902 0.5 9.18124 0.5C5.83724 0.5 2.94025 2.4055 1.53125 5.1825L4.37524 7.3739C5.05324 5.3591 6.94824 3.8645 9.18124 3.8645Z" fill="#E94235"/>
</g>
</svg>
