<svg width="18" height="17" viewBox="0 0 18 17" fill="none" xmlns="http://www.w3.org/2000/svg">
<path fill-rule="evenodd" clip-rule="evenodd" d="M9 0C4.03 0 0 3.2538 0 7.2703C0 9.8507 1.66899 12.1159 4.17599 13.4087L3.328 16.6462C3.312 16.6938 3.31 16.7449 3.321 16.7937C3.333 16.8425 3.357 16.887 3.392 16.9221C3.436 16.9688 3.49601 16.9966 3.55901 16.9997C3.62201 17.0028 3.684 16.981 3.733 16.9388L7.379 14.4195C7.916 14.4993 8.457 14.5399 9 14.541C13.97 14.541 18 11.2868 18 7.2686C18 3.2504 13.97 0 9 0Z" fill="#1D1D1D"/>
</svg>
